<svg width="19" height="15" viewBox="0 0 19 15" fill="none" xmlns="http://www.w3.org/2000/svg">
<g clip-path="url(#clip0_332_826)">
<path d="M1.7828 0.00976562C0.812607 0.00976562 0.0177002 0.972821 0.0177002 2.14824V12.8404C0.0177002 14.0158 0.812607 14.9788 1.7828 14.9788H17.2271C18.1973 14.9788 18.9922 14.0158 18.9922 12.8404V2.14824C18.9922 0.972821 18.1973 0.00976562 17.2271 0.00976562H1.7828ZM1.7828 1.07888H17.2271C17.2845 1.07888 17.3385 1.09193 17.3925 1.10405L9.89101 9.2315C9.70325 9.43474 9.30649 9.43474 9.11872 9.2315L1.61721 1.10405C1.67123 1.09193 1.72541 1.07888 1.78266 1.07888H1.7828ZM0.948494 1.81387L6.40915 7.72795L0.955191 13.1996C0.924103 13.0886 0.900096 12.9659 0.900096 12.8404V2.14831C0.900096 2.02936 0.920257 1.92009 0.948423 1.81419L0.948494 1.81387ZM18.0613 1.81387C18.0893 1.91978 18.1096 2.02904 18.1096 2.148V12.8401C18.1096 12.9658 18.0856 13.0885 18.0545 13.1992L12.6006 7.72812L18.0612 1.81403L18.0613 1.81387ZM7.07774 8.45444L8.53258 10.0248C9.08432 10.6222 9.92524 10.6222 10.477 10.0248L11.9318 8.45444L17.3582 13.9007C17.3149 13.9082 17.2725 13.9089 17.2272 13.9089H1.78295C1.7377 13.9089 1.69522 13.9089 1.65198 13.9007L7.07774 8.45444Z" fill="#969696"/>
</g>
<defs>
<clipPath id="clip0_332_826">
<rect width="19" height="15" fill="white"/>
</clipPath>
</defs>
</svg>
