<svg width="21" height="18" viewBox="0 0 21 18" fill="none" xmlns="http://www.w3.org/2000/svg">
<path d="M7.5437 0.733874L7.49907 0.65786C6.87336 -0.20149 5.54178 -0.254972 4.84914 0.711528L0.744647 8.47116C0.0130517 9.87158 -0.18779 11.5229 0.179071 13.1203C0.708658 15.4259 2.48921 17.2613 4.71469 17.7971C5.20374 17.9146 5.69583 17.9725 6.18226 17.9725C7.58206 17.9725 8.93661 17.4927 10.0417 16.5799C11.5305 15.3506 12.3843 13.5135 12.3843 11.539C12.3843 10.1861 11.9852 8.89182 11.2563 7.83965L7.5437 0.733874ZM9.51171 15.8874C8.22676 16.948 6.54851 17.331 4.90728 16.9341C2.99366 16.4733 1.46304 14.8956 1.00789 12.9141C0.685341 11.5093 0.853296 10.1183 1.49252 8.89519L5.56231 1.19189C5.85488 0.788964 6.48729 0.775251 6.7958 1.16074L10.5374 8.31102C11.1885 9.25588 11.5327 10.3727 11.5327 11.539C11.5324 13.242 10.796 14.8266 9.51188 15.8873L9.51171 15.8874Z" fill="#969696"/>
<path d="M9.76554 11.603C9.53031 11.603 9.33955 11.8011 9.33955 12.0457C9.33955 12.8186 9.00511 13.538 8.42191 14.0194C7.83874 14.5026 7.07603 14.6756 6.32893 14.4948C6.10053 14.4411 5.87115 14.5883 5.8179 14.8258C5.76463 15.0643 5.90765 15.3022 6.13669 15.3576C6.39457 15.4199 6.65373 15.45 6.91049 15.45C7.65056 15.45 8.36701 15.1959 8.95215 14.7127C9.73996 14.0628 10.1915 13.09 10.1915 12.0456C10.1915 11.8011 10.0008 11.603 9.76554 11.603Z" fill="#969696"/>
<path d="M4.13438 9.46826C3.18059 9.46826 2.40454 10.2748 2.40454 11.2665C2.40454 12.2583 3.18059 13.0648 4.13438 13.0648C5.08834 13.0648 5.86439 12.2583 5.86439 11.2665C5.86439 10.2748 5.08834 9.46826 4.13438 9.46826ZM4.13438 12.1794C3.65025 12.1794 3.25632 11.7697 3.25632 11.2666C3.25632 10.7634 3.65022 10.3537 4.13438 10.3537C4.61868 10.3537 5.01244 10.7634 5.01244 11.2666C5.01244 11.7697 4.61838 12.1794 4.13438 12.1794Z" fill="#969696"/>
<path d="M18.9799 0.561523H11.9283C11.0619 0.561523 10.3568 1.29376 10.3568 2.19476C10.3568 3.09576 11.0617 3.82864 11.9283 3.82864H18.9799C19.8464 3.82864 20.5514 3.09541 20.5514 2.19476C20.5513 1.2941 19.8462 0.561523 18.9799 0.561523ZM18.9799 2.9432H11.9283C11.5315 2.9432 11.2088 2.60782 11.2088 2.19441C11.2088 1.782 11.5315 1.44662 11.9283 1.44662H18.9799C19.3767 1.44662 19.6994 1.782 19.6994 2.19441C19.6996 2.60784 19.3769 2.9432 18.9799 2.9432Z" fill="#969696"/>
</svg>
